<?xml version="1.0" standalone="no"?>
<!DOCTYPE svg PUBLIC "-//W3C//DTD SVG 20010904//EN"
 "http://www.w3.org/TR/2001/REC-SVG-20010904/DTD/svg10.dtd">
<svg version="1.0" xmlns="http://www.w3.org/2000/svg"
 width="500.000000pt" height="500.000000pt" viewBox="0 0 500.000000 500.000000"
 preserveAspectRatio="xMidYMid meet">

<g transform="translate(0.000000,500.000000) scale(0.100000,-0.100000)"
fill="#000000" stroke="none">
<path d="M2353 3933 l-32 -4 5 -67 c8 -91 6 -88 53 -84 49 5 59 32 11 32 -38
0 -41 27 -3 32 39 4 42 28 4 28 -38 0 -42 25 -6 34 25 6 36 37 13 34 -7 0 -27
-3 -45 -5z"/>
<path d="M2516 3923 c-3 -8 -6 -44 -6 -79 0 -50 3 -64 15 -64 10 0 15 10 15
28 l0 27 21 -32 c12 -19 29 -33 41 -33 19 0 19 0 -1 29 -20 28 -20 28 -1 46
39 35 18 79 -42 88 -27 4 -38 2 -42 -10z m64 -28 c14 -17 5 -35 -19 -35 -14 0
-17 6 -13 25 5 28 14 31 32 10z"/>
<path d="M2195 3910 c-4 -6 -4 -29 0 -51 l7 -40 -40 43 c-30 31 -44 40 -52 32
-10 -10 -8 -28 15 -131 3 -13 12 -23 21 -23 12 0 14 9 9 48 l-6 47 31 -37 c37
-43 75 -52 67 -15 -3 12 -11 48 -18 80 -12 55 -21 68 -34 47z"/>
<path d="M2680 3874 c0 -5 51 -20 112 -33 410 -85 764 -367 949 -756 97 -204
133 -383 126 -625 -5 -174 -19 -256 -66 -398 -31 -92 -24 -123 8 -38 28 76 57
196 72 295 15 106 6 359 -16 461 -95 433 -370 786 -760 975 -140 68 -425 147
-425 119z"/>
<path d="M1973 3833 c3 -16 9 -37 13 -47 7 -18 4 -17 -25 5 -60 44 -60 44 -71
33 -14 -14 37 -144 57 -144 11 0 13 6 9 23 -21 79 -22 75 16 40 37 -36 85 -46
73 -15 -4 9 -16 43 -27 75 -13 36 -25 57 -35 57 -12 0 -14 -7 -10 -27z"/>
<path d="M1770 3770 c-13 -8 -10 -19 20 -75 19 -36 41 -65 48 -65 19 0 14 19
-21 87 -25 49 -35 60 -47 53z"/>
<path d="M1651 3701 c-11 -7 -10 -13 4 -35 17 -26 17 -27 -1 -41 -25 -19 -27
-19 -44 10 -11 17 -19 22 -29 15 -12 -7 -6 -21 29 -74 34 -54 45 -64 57 -55
11 10 11 16 -3 37 -16 24 -16 26 2 39 24 18 29 17 44 -11 12 -23 40 -26 40 -4
0 8 -78 128 -83 128 -1 0 -8 -4 -16 -9z"/>
<path d="M2355 3614 c-11 -2 -45 -9 -75 -15 -217 -41 -409 -146 -576 -313
-127 -128 -202 -247 -262 -416 -98 -278 -76 -614 56 -875 102 -202 297 -397
497 -497 267 -135 604 -154 885 -53 265 96 496 300 622 550 132 261 154 597
56 875 -60 169 -135 288 -262 416 -175 175 -362 274 -605 319 -75 14 -283 19
-336 9z m22 -458 c25 -22 28 -30 27 -88 -2 -85 -36 -181 -145 -411 -50 -103
-101 -217 -115 -252 -23 -62 -21 -82 6 -50 24 29 128 85 158 85 36 0 48 -13
57 -65 13 -79 12 -78 66 -73 31 3 87 24 155 57 113 54 119 57 109 41 -19 -30
-236 -120 -291 -120 -37 0 -65 32 -75 84 -5 27 -11 52 -14 54 -12 13 -96 -39
-156 -95 -37 -35 -72 -63 -78 -63 -37 0 9 138 129 390 53 113 109 238 124 279
32 88 43 178 27 209 -30 56 -159 1 -280 -119 -165 -165 -319 -448 -379 -698
-10 -44 -32 -53 -32 -14 0 48 39 264 64 358 26 96 92 261 108 271 23 14 18
-12 -20 -109 -35 -90 -83 -248 -82 -274 0 -4 29 46 63 112 85 163 156 264 257
366 134 135 251 181 317 125z m891 -166 c97 -60 75 -224 -48 -362 -89 -99
-212 -150 -257 -105 -22 22 -8 35 15 14 53 -48 222 75 289 211 52 106 31 232
-40 240 -69 8 -218 -115 -315 -263 -141 -213 -213 -428 -192 -574 11 -78 33
-111 74 -111 40 0 94 35 216 139 93 80 147 113 204 127 21 5 27 4 22 -5 -4 -6
-17 -11 -30 -11 -33 0 -100 -47 -206 -144 -140 -130 -198 -152 -259 -101 -67
57 -75 205 -20 368 79 235 275 509 410 572 65 30 94 31 137 5z"/>
<path d="M1444 3538 c-23 -11 -44 -48 -44 -77 0 -10 9 -30 21 -45 16 -20 29
-26 59 -26 83 0 112 108 39 145 -32 17 -46 18 -75 3z m76 -49 c14 -26 -11 -69
-40 -69 -11 0 -27 11 -35 24 -23 34 -5 66 35 66 19 0 33 -7 40 -21z"/>
<path d="M1294 3378 c-4 -7 11 -26 37 -49 39 -33 43 -40 32 -58 -10 -15 -9
-22 2 -31 10 -8 17 -6 29 12 25 36 19 53 -33 97 -54 45 -57 46 -67 29z"/>
<path d="M1277 3168 c-77 -139 -136 -322 -158 -486 -18 -136 -6 -374 25 -499
30 -120 84 -265 128 -343 208 -370 533 -612 948 -705 115 -26 374 -31 496 -11
54 10 101 19 103 22 13 12 -13 15 -61 5 -29 -6 -99 -15 -155 -19 -528 -39
-1030 226 -1291 682 -69 120 -109 218 -144 356 -26 97 -31 141 -35 277 -9 257
29 438 135 656 61 125 67 171 9 65z"/>
<path d="M3672 1921 c-10 -29 -10 -30 39 -46 28 -10 53 -14 57 -10 4 4 1 10
-5 12 -19 7 -16 20 7 26 11 3 20 10 20 16 0 7 -9 9 -24 5 -16 -4 -25 -1 -29
10 -4 9 -17 16 -31 16 -18 0 -27 -8 -34 -29z m48 -6 c0 -8 -7 -15 -15 -15 -8
0 -15 7 -15 15 0 8 7 15 15 15 8 0 15 -7 15 -15z"/>
<path d="M3630 1811 c-5 -11 -10 -24 -10 -28 0 -9 90 -57 95 -51 1 2 8 14 14
26 15 29 4 44 -13 19 -19 -25 -29 -21 -22 8 7 27 -11 36 -20 10 -10 -25 -27
-17 -20 10 8 30 -9 33 -24 6z"/>
<path d="M3564 1694 c-11 -16 -14 -28 -8 -32 79 -53 115 -65 83 -26 -8 9 -12
28 -10 42 5 45 -39 56 -65 16z m46 -20 c0 -16 -16 -19 -25 -4 -8 13 4 32 16
25 5 -4 9 -13 9 -21z"/>
<path d="M3476 1578 c-9 -12 -16 -30 -16 -39 0 -38 70 -65 98 -37 20 20 15 76
-7 88 -31 16 -59 12 -75 -12z m67 -20 c14 -21 2 -48 -22 -48 -30 0 -45 34 -25
55 18 18 33 16 47 -7z"/>
<path d="M3357 1473 c-4 -6 10 -29 31 -52 l37 -41 25 19 c27 22 22 39 -6 23
-15 -8 -24 -3 -49 26 -19 21 -34 31 -38 25z"/>
<path d="M3267 1406 c-17 -13 -16 -16 10 -60 15 -25 30 -45 33 -45 13 -1 54
39 47 45 -4 4 -13 2 -19 -4 -16 -16 -28 -15 -28 3 0 8 5 15 10 15 6 0 10 7 10
15 0 12 -4 14 -19 5 -13 -7 -22 -7 -26 0 -3 6 1 13 9 16 9 3 16 10 16 15 0 13
-22 10 -43 -5z"/>
<path d="M3184 1320 c7 -46 -4 -52 -28 -15 -15 23 -46 35 -46 17 0 -16 78 -84
89 -78 6 4 11 32 11 62 0 43 -3 54 -16 54 -14 0 -15 -7 -10 -40z"/>
<path d="M3023 1300 c-26 -11 -27 -18 -11 -71 11 -40 35 -50 67 -30 17 11 -1
23 -23 15 -11 -4 -16 -1 -16 10 0 9 7 16 15 16 8 0 15 5 15 10 0 6 -9 10 -20
10 -23 0 -27 15 -5 24 8 3 15 10 15 16 0 12 -7 12 -37 0z"/>
<path d="M2859 1263 c-2 -16 2 -69 7 -86 8 -27 55 -18 73 14 13 24 13 29 -2
53 -12 18 -26 26 -47 26 -17 0 -30 -3 -31 -7z m59 -42 c5 -30 -15 -52 -28 -31
-5 8 -10 25 -10 38 0 32 34 25 38 -7z"/>
</g>
</svg>
