/<?xml version="1.0" standalone="no"?>
<!DOCTYPE svg PUBLIC "-//W3C//DTD SVG 20010904//EN"
 "http://www.w3.org/TR/2001/REC-SVG-20010904/DTD/svg10.dtd">
<svg version="1.0" xmlns="http://www.w3.org/2000/svg"
 width="500.000000pt" height="500.000000pt" viewBox="0 0 500.000000 500.000000"
 preserveAspectRatio="xMidYMid meet">

<g transform="translate(0.000000,500.000000) scale(0.100000,-0.100000)"
fill="#000000" stroke="none">
<path d="M0 2500 l0 -2500 2500 0 2500 0 0 2500 0 2500 -2500 0 -2500 0 0
-2500z m2413 1426 c7 -19 -1 -26 -30 -26 -14 0 -23 -6 -23 -15 0 -10 10 -15
30 -15 20 0 30 -5 30 -15 0 -10 -10 -15 -30 -15 -20 0 -30 -5 -30 -15 0 -10
10 -15 30 -15 46 0 38 -26 -11 -34 -23 -4 -43 -5 -44 -4 -1 2 -5 38 -9 80 -6
74 -6 77 16 81 46 9 66 7 71 -7z m195 -14 c17 -22 15 -42 -5 -64 -16 -18 -16
-21 1 -48 17 -29 17 -30 -3 -30 -10 0 -29 12 -40 28 -20 26 -20 26 -21 5 0
-15 -6 -23 -18 -23 -16 0 -18 8 -14 68 2 37 5 73 8 81 6 18 74 6 92 -17z
m-378 -49 c6 -32 14 -68 17 -80 9 -37 -31 -29 -67 15 l-31 37 7 -48 c6 -44 5
-49 -12 -45 -13 2 -21 19 -31 63 -7 33 -12 68 -13 78 0 28 27 20 65 -20 l36
-38 -7 37 c-6 37 0 58 16 58 5 0 14 -26 20 -57z m641 -18 c536 -151 932 -603
1010 -1153 15 -106 6 -382 -15 -477 -22 -95 -66 -234 -78 -241 -19 -12 -17 5
11 87 54 153 66 236 66 439 0 206 -11 278 -70 451 -100 295 -307 552 -580 719
-139 86 -342 162 -492 185 -24 4 -43 11 -43 17 0 15 85 2 191 -27z m-847 -56
c14 -38 26 -72 26 -75 0 -15 -48 0 -72 23 -30 29 -46 26 -29 -5 15 -28 14 -49
-3 -55 -10 -4 -21 15 -40 65 -35 97 -24 112 45 57 43 -34 45 -33 25 16 -8 18
-12 36 -8 39 16 17 32 -1 56 -65z m-177 -157 c-14 -18 -28 -3 -62 68 -24 51
-27 63 -15 70 19 12 92 -118 77 -138z m-137 19 c22 -33 40 -64 40 -70 0 -22
-21 -21 -42 3 -21 23 -25 24 -42 11 -17 -13 -17 -15 -2 -37 20 -28 20 -34 2
-41 -21 -8 -103 120 -87 136 9 9 17 5 34 -15 19 -24 24 -26 40 -14 18 14 18
16 1 41 -15 23 -15 28 -3 36 8 5 15 9 16 9 1 0 20 -27 43 -59z m1072 -64 c111
-29 235 -85 335 -149 86 -56 217 -180 283 -266 70 -92 155 -267 187 -387 25
-92 27 -115 27 -285 0 -168 -2 -194 -26 -282 -66 -243 -218 -468 -417 -619
-93 -70 -268 -154 -386 -186 -92 -25 -116 -27 -285 -27 -168 0 -194 2 -282 26
-118 32 -244 90 -352 162 -93 62 -233 202 -296 295 -62 93 -127 236 -157 348
-25 89 -27 114 -27 283 0 169 2 194 27 283 50 186 142 350 274 488 165 172
354 279 584 328 137 30 374 24 511 -12z m-1239 -68 c43 -52 5 -129 -64 -129
-61 0 -98 65 -68 121 23 43 99 47 132 8z m-180 -170 c50 -43 56 -61 31 -97
-12 -18 -19 -20 -29 -12 -11 9 -12 16 -2 31 11 18 7 25 -32 58 -26 23 -41 42
-37 49 11 18 17 15 69 -29z m-79 -213 c-52 -98 -105 -247 -131 -366 -25 -120
-25 -420 0 -540 58 -270 185 -506 378 -699 186 -187 387 -298 669 -369 96 -24
122 -27 300 -26 144 0 211 4 258 16 47 12 62 12 62 3 0 -34 -354 -58 -512 -35
-586 85 -1044 511 -1173 1090 -22 99 -31 386 -16 489 26 167 92 360 165 485
47 80 47 40 0 -48z m2446 -1193 c1 -24 18 -35 39 -24 12 7 21 8 21 2 0 -5 -15
-14 -32 -21 l-33 -11 25 -14 c14 -8 20 -14 14 -15 -13 0 -104 31 -104 35 0 23
27 55 47 55 12 0 23 -3 23 -7z m-90 -132 c-15 -29 -12 -41 8 -41 11 0 24 10
30 23 11 20 12 19 7 -9 -8 -42 21 -56 36 -17 5 14 12 23 15 21 7 -7 -17 -58
-27 -58 -5 0 -28 10 -52 21 -43 21 -44 23 -33 50 6 16 14 29 19 29 4 0 3 -9
-3 -19z m-15 -121 c4 -12 1 -28 -6 -36 -10 -12 -8 -17 7 -29 33 -25 0 -16 -39
10 -41 29 -41 29 -27 56 14 26 57 25 65 -1z m-77 -106 c41 -28 18 -104 -31
-104 -53 0 -77 75 -35 104 12 9 27 16 33 16 6 0 21 -7 33 -16z m-102 -173 c8
7 17 9 20 6 3 -3 -5 -11 -17 -18 -21 -11 -26 -8 -56 27 -18 21 -33 44 -33 49
0 6 17 -9 36 -33 29 -34 39 -40 50 -31z m-154 0 c-13 -12 -20 -25 -16 -35 7
-18 20 -21 29 -6 3 6 12 10 18 10 7 0 4 -7 -7 -15 -22 -16 -14 -51 9 -41 42
17 47 16 20 -2 -33 -24 -41 -20 -73 37 l-23 40 28 15 c38 20 43 19 15 -3z
m-83 -124 l1 -49 -50 42 c-28 24 -48 45 -45 48 3 3 21 -10 40 -28 l35 -34 1
55 c1 68 17 38 18 -34z m-161 10 c-17 -6 -28 -18 -28 -30 0 -15 5 -18 33 -13
l32 5 -28 -11 c-37 -16 -32 -44 8 -41 l30 2 -30 -14 c-29 -13 -30 -12 -41 13
-7 15 -15 41 -18 59 -6 27 -4 32 16 36 42 8 54 5 26 -6z m-116 -44 c35 -32 15
-82 -39 -95 -24 -6 -33 12 -33 75 0 34 2 37 27 37 14 0 35 -7 45 -17z"/>
<path d="M2550 3885 c0 -15 6 -25 14 -25 19 0 27 25 13 39 -18 18 -27 13 -27
-14z"/>
<path d="M2213 3150 c-144 -72 -305 -269 -429 -523 -24 -50 -46 -92 -48 -95
-7 -6 22 114 40 173 9 28 32 90 51 138 33 82 37 107 15 93 -14 -8 -79 -172
-106 -266 -43 -154 -74 -378 -51 -380 6 -1 14 16 18 37 51 233 208 522 375
690 122 123 252 179 283 121 15 -29 5 -119 -22 -200 -12 -35 -66 -157 -121
-272 -131 -276 -174 -406 -135 -406 7 0 33 20 56 45 47 49 114 99 154 114 21
8 26 7 31 -12 3 -12 6 -35 6 -50 0 -35 41 -77 75 -77 40 0 143 38 223 82 40
22 71 42 69 44 -2 3 -51 -19 -108 -47 -109 -55 -193 -74 -209 -49 -5 7 -11 34
-15 59 -4 25 -12 52 -17 59 -24 28 -80 10 -171 -55 -27 -19 -51 -32 -53 -30
-7 7 31 97 127 301 109 229 136 298 149 382 23 142 -52 191 -187 124z"/>
<path d="M3130 2984 c-137 -68 -313 -314 -405 -564 -21 -57 -29 -100 -32 -176
-6 -118 5 -162 48 -199 63 -52 119 -28 279 120 52 49 118 99 145 112 31 16 39
22 22 18 -41 -8 -90 -42 -192 -129 -114 -99 -164 -128 -207 -124 -51 5 -73 58
-72 173 1 73 7 108 33 185 34 101 106 244 173 344 55 82 173 197 229 224 59
29 90 28 120 -4 36 -38 34 -138 -4 -215 -49 -100 -144 -190 -230 -219 -33 -10
-41 -10 -58 6 -10 9 -22 14 -27 10 -4 -4 2 -14 13 -23 37 -27 105 -12 177 39
209 150 255 417 77 444 -25 4 -49 -2 -89 -22z"/>
<path d="M1453 3503 c-16 -6 -17 -55 -1 -71 18 -18 45 -14 62 9 29 42 -11 83
-61 62z"/>
<path d="M3684 1925 c-7 -18 3 -35 21 -35 15 0 28 27 19 41 -8 14 -34 11 -40
-6z"/>
<path d="M3572 1688 c-8 -8 -9 -15 -1 -25 22 -26 53 -8 41 25 -5 15 -24 16
-40 0z"/>
<path d="M3492 1574 c-12 -8 -22 -24 -22 -34 0 -10 10 -26 22 -34 19 -13 25
-14 43 -2 11 7 20 24 20 36 0 12 -9 29 -20 36 -18 12 -24 11 -43 -2z"/>
<path d="M2870 1246 c0 -35 14 -76 26 -76 17 0 44 28 44 45 0 20 -28 45 -51
45 -10 0 -19 -6 -19 -14z"/>
</g>
</svg>
